<svg xmlns="http://www.w3.org/2000/svg" width="184" height="153" viewBox="0 0 184 153" fill="none">
  <path d="M180.086 7.40718C177.828 4.01172 174.501 1.63553 170.737 0.729428C166.14 0.222766 161.497 0.893951 157.182 2.68919C141.413 7.55087 124.974 9.32054 108.634 7.91527C96.2017 5.80701 83.6161 4.95655 71.039 5.37482C58.5512 6.89909 45.5963 14.3753 43.5262 25.9888L41.8568 28.8195C41.0692 28.1237 40.2192 27.5158 39.3196 27.0049C28.066 31.9263 17.4485 38.4164 7.73383 46.3124C4.39496 48.7802 0.722188 51.8288 0.455078 55.8209C0.508318 57.9121 1.03592 59.9566 1.99098 61.7728C8.26496 75.7899 16.5864 88.6098 26.6319 99.7344C28.7156 102.102 31.0464 104.197 33.5768 105.977L33.1761 108.807C34.292 115.267 34.7844 121.835 34.6452 128.405L36.3814 128.478C66.2087 147.478 100.81 155.712 135.212 151.995L139.553 150.761C134.211 128.333 127.065 104.235 138.017 83.8385C145.429 70.0474 159.653 60.9018 170.538 49.4331C181.422 37.8927 188.968 20.3274 180.086 7.40718Z" fill="#021939"/>
</svg>