<svg xmlns="http://www.w3.org/2000/svg" width="135" height="143" viewBox="0 0 135 143" fill="none">
  <g opacity="0.1">
    <path d="M138.494 39.8217C133.889 34.2059 127.217 30.6652 119.82 30.0499C112.424 29.4345 105.341 31.6061 99.725 36.2111L87.8212 46.1677L77.8646 34.2639C73.2596 28.6481 66.5878 25.1074 59.1912 24.4921C51.7946 23.8767 44.7118 26.0482 39.096 30.6532C33.4801 35.2582 29.9395 41.93 29.3241 49.3266C28.7087 56.7232 30.8803 63.806 35.4853 69.4218L45.442 81.3256L33.5382 91.2823C22.0143 101.303 20.2871 118.591 30.0285 130.38C34.6335 135.996 41.3052 139.537 48.7018 140.152C52.4002 140.46 55.8965 140.109 59.3555 139.048C62.8145 137.988 66.0715 136.268 68.7971 133.991L80.7009 124.034L90.6575 135.938C95.2625 141.554 101.934 145.095 109.331 145.71C113.029 146.018 116.526 145.666 119.985 144.606C123.444 143.545 126.701 141.826 129.426 139.549C135.042 134.944 138.583 128.272 139.198 120.875C139.813 113.479 137.642 106.396 133.037 100.78L123.08 88.8764L134.984 78.9197C140.6 74.3147 144.14 67.643 144.756 60.2464C145.485 52.6345 143.314 45.5518 138.494 39.8217ZM126.15 135.328C121.535 139.085 115.77 140.852 109.843 140.327C103.916 139.802 98.5351 136.947 94.613 132.383L84.6564 120.479L118.973 91.9376L128.93 103.841C136.875 113.299 135.607 127.382 126.15 135.328ZM49.2644 134.934C43.337 134.409 37.9566 131.554 34.0345 126.99C26.0894 117.533 27.3574 103.449 36.8146 95.5035L48.7184 85.5468L50.7214 83.8515L52.7244 82.1562L56.8951 78.7151L59.4381 81.7196L62.8287 85.7256L78.8199 104.969L82.2106 108.975L85.6517 113.146L81.481 116.587L79.478 118.282L77.4245 119.813L65.5207 129.77C60.9568 133.692 55.1918 135.459 49.2644 134.934ZM34.5422 49.8891C35.0674 43.9617 37.9227 38.5813 42.4866 34.6593C44.7685 32.6982 47.4172 31.3455 50.2173 30.487C53.0175 29.6285 55.8044 29.3146 58.7934 29.6596C64.7208 30.1848 70.1012 33.0402 74.0233 37.604L83.9799 49.5078L49.6632 78.0492L39.7065 66.1454C35.835 61.7463 33.9027 56.0317 34.5422 49.8891ZM82.7383 62.5024L86.1289 66.5084L102.12 85.7522L105.511 89.7582L108.952 93.9289L89.7082 109.92L86.0519 105.635L82.6612 101.629L66.67 82.3855L63.2794 78.3795L60.9516 75.4892L80.1953 59.4979L82.7383 62.5024ZM117.801 86.3505L115.798 88.0458L112.793 90.5888L109.352 86.418L105.961 82.412L89.9702 63.1683L86.5796 59.1623L84.0366 56.1578L87.0411 53.6148L89.0441 51.9195L91.0471 50.2242L102.951 40.2676C107.565 36.5102 113.33 34.7427 119.258 35.2679C125.185 35.7932 130.566 38.6485 134.488 43.2124C138.245 47.8267 140.012 53.5917 139.487 59.5191C138.962 65.4465 136.107 70.827 131.543 74.749L119.639 84.7057L117.801 86.3505Z" fill="#06A37E"/>
    <path d="M52.1902 59.2542C57.461 57.6381 54.936 49.4024 49.6651 51.0184C44.3942 52.6345 46.9193 60.8702 52.1902 59.2542Z" fill="#06A37E"/>
    <path d="M116.53 64.5759C116.1 64.3475 115.555 64.3343 115.061 64.4858C114.567 64.6373 114.123 64.9535 113.895 65.384C110.295 67.749 112.746 74.566 117.687 73.051C122.578 71.3712 120.837 64.5169 116.53 64.5759Z" fill="#06A37E"/>
    <path d="M54.2276 98.8138C48.9567 100.43 51.4818 108.666 56.7527 107.05C62.0235 105.434 59.4985 97.1978 54.2276 98.8138Z" fill="#06A37E"/>
    <path d="M55.0838 41.069C57.7193 40.261 56.4567 36.1431 53.8213 36.9511C51.1859 37.7591 52.4484 41.877 55.0838 41.069Z" fill="#06A37E"/>
    <path d="M68.5008 49.569C71.1363 48.761 69.8737 44.6431 67.2383 45.4511C64.6029 46.2591 65.8654 50.377 68.5008 49.569Z" fill="#06A37E"/>
    <path d="M103.374 123.931C100.739 124.739 102.001 128.857 104.637 128.048C107.272 127.24 106.009 123.123 103.374 123.931Z" fill="#06A37E"/>
    <path d="M119.892 110.216C119.842 110.051 119.791 109.886 119.74 109.721C118.932 107.086 114.815 108.348 115.623 110.984C115.673 111.149 115.724 111.313 115.774 111.478C116.797 114.228 120.751 113.016 119.892 110.216Z" fill="#06A37E"/>
    <path d="M123.491 121.367C120.856 122.175 122.118 126.293 124.754 125.485C127.389 124.676 126.127 120.559 123.491 121.367Z" fill="#06A37E"/>
    <path d="M38.2695 109.654C35.6341 110.462 36.8966 114.58 39.5321 113.772C42.1675 112.964 40.905 108.846 38.2695 109.654Z" fill="#06A37E"/>
    <path d="M57.4873 119.438C54.8519 120.246 56.1144 124.364 58.7499 123.556C61.3853 122.748 60.1228 118.63 57.4873 119.438Z" fill="#06A37E"/>
    <path d="M105.88 49.8207C103.244 50.6288 104.507 54.7466 107.142 53.9386C109.778 53.1306 108.515 49.0127 105.88 49.8207Z" fill="#06A37E"/>
    <path d="M121.905 47.4301C119.27 48.2381 120.532 52.356 123.168 51.548C125.803 50.74 124.541 46.6221 121.905 47.4301Z" fill="#06A37E"/>
  </g>
</svg>