<svg xmlns="http://www.w3.org/2000/svg" width="120" height="145" viewBox="0 0 120 145" fill="none">
  <path opacity="0.1" d="M144.194 15.3202C144.154 14.5242 143.801 13.7752 143.213 13.2406L129.593 0.853742C128.367 -0.259514 126.478 -0.159645 125.372 1.06817L85.1944 45.7806L85.1911 45.7861L85.1827 45.7923L1.48002 138.947C0.723913 139.788 0.503504 140.986 0.90637 142.043C1.30924 143.101 2.26969 143.841 3.38925 143.959C6.54795 144.288 9.70082 144.449 12.8478 144.449C17.8915 144.449 22.9018 144.02 27.8342 143.204H89.1442C90.7951 143.204 92.1336 141.858 92.1336 140.196C92.1336 138.533 90.7951 137.188 89.1442 137.188H48.6075C61.0414 131.964 72.3757 124.052 81.6109 113.774L116.83 74.5784C117.361 73.985 117.638 73.2066 117.597 72.4077C117.558 71.6116 117.205 70.8626 116.616 70.328L105.243 59.9839L143.426 17.4909C143.957 16.8976 144.235 16.1192 144.194 15.3202ZM77.1765 109.738C60.0839 128.761 35.3251 139.282 10.0438 138.386L87.613 52.0577L110.39 72.7748L77.1765 109.738ZM100.819 55.9379L91.6344 47.5841L127.802 7.33354L136.986 15.6874L100.819 55.9379Z" fill="#06A37E"/>
</svg>