<svg width="61" height="60" viewBox="0 0 61 60" fill="none" xmlns="http://www.w3.org/2000/svg">
<rect x="0.919922" width="60" height="60" rx="30" fill="#FEFEF2"/>
<path d="M23.3599 12H38.4799C44.2399 12 48.9199 16.68 48.9199 22.44V37.56C48.9199 40.3289 47.82 42.9843 45.8621 44.9422C43.9042 46.9001 41.2488 48 38.4799 48H23.3599C17.5999 48 12.9199 43.32 12.9199 37.56V22.44C12.9199 19.6711 14.0198 17.0157 15.9777 15.0578C17.9356 13.0999 20.5911 12 23.3599 12ZM22.9999 15.6C21.2813 15.6 19.6331 16.2827 18.4179 17.4979C17.2026 18.7132 16.5199 20.3614 16.5199 22.08V37.92C16.5199 41.502 19.4179 44.4 22.9999 44.4H38.8399C40.5585 44.4 42.2067 43.7173 43.422 42.5021C44.6372 41.2868 45.3199 39.6386 45.3199 37.92V22.08C45.3199 18.498 42.4219 15.6 38.8399 15.6H22.9999ZM40.3699 18.3C40.9667 18.3 41.539 18.5371 41.9609 18.959C42.3829 19.381 42.6199 19.9533 42.6199 20.55C42.6199 21.1467 42.3829 21.719 41.9609 22.141C41.539 22.5629 40.9667 22.8 40.3699 22.8C39.7732 22.8 39.2009 22.5629 38.7789 22.141C38.357 21.719 38.1199 21.1467 38.1199 20.55C38.1199 19.9533 38.357 19.381 38.7789 18.959C39.2009 18.5371 39.7732 18.3 40.3699 18.3ZM30.9199 21C33.3069 21 35.5961 21.9482 37.2839 23.636C38.9717 25.3239 39.9199 27.6131 39.9199 30C39.9199 32.3869 38.9717 34.6761 37.2839 36.364C35.5961 38.0518 33.3069 39 30.9199 39C28.533 39 26.2438 38.0518 24.556 36.364C22.8681 34.6761 21.9199 32.3869 21.9199 30C21.9199 27.6131 22.8681 25.3239 24.556 23.636C26.2438 21.9482 28.533 21 30.9199 21ZM30.9199 24.6C29.4878 24.6 28.1142 25.1689 27.1015 26.1816C26.0888 27.1943 25.5199 28.5678 25.5199 30C25.5199 31.4322 26.0888 32.8057 27.1015 33.8184C28.1142 34.8311 29.4878 35.4 30.9199 35.4C32.3521 35.4 33.7256 34.8311 34.7383 33.8184C35.751 32.8057 36.3199 31.4322 36.3199 30C36.3199 28.5678 35.751 27.1943 34.7383 26.1816C33.7256 25.1689 32.3521 24.6 30.9199 24.6Z" fill="#021939"/>
</svg>
