<svg xmlns="http://www.w3.org/2000/svg" width="129" height="146" viewBox="0 0 129 146" fill="none">
  <g opacity="0.1">
    <path d="M98.6801 95.0964H90.0091C88.9431 95.0964 88.0779 94.2312 88.0779 93.1652V84.5908H79.5034C78.4374 84.5908 77.5723 83.7256 77.5723 82.6596V73.9886C77.5723 72.9226 78.4374 72.0574 79.5034 72.0574H88.0779V63.4829C88.0779 62.4169 88.9431 61.5518 90.0091 61.5518H98.6801C99.7461 61.5518 100.611 62.4169 100.611 63.4829V72.0574H109.186C110.252 72.0574 111.117 72.9226 111.117 73.9886V82.6596C111.117 83.7256 110.252 84.5908 109.186 84.5908H100.611V93.1652C100.611 94.2312 99.748 95.0964 98.6801 95.0964ZM91.9422 91.234H96.7508V82.6596C96.7508 81.5936 97.616 80.7284 98.682 80.7284H107.256V75.9197H98.682C97.616 75.9197 96.7508 75.0546 96.7508 73.9886V65.4141H91.9422V73.9886C91.9422 75.0546 91.077 75.9197 90.011 75.9197H81.4366V80.7284H90.011C91.077 80.7284 91.9422 81.5936 91.9422 82.6596V91.234Z" fill="#06A37E"/>
    <path d="M105.239 150.73H7.48814C3.40562 150.73 0.0839844 147.408 0.0839844 143.324V22.5672C0.0839844 18.4828 3.40562 15.1611 7.48814 15.1611H29.7527C30.3784 15.1611 30.9655 15.4643 31.3266 15.9742C31.6897 16.484 31.7824 17.1387 31.5758 17.7277L28.7698 25.771C28.7138 25.9333 28.6964 26.0993 28.7215 26.2635C28.7871 26.6942 29.1579 27.1325 29.7373 27.1325H82.4354C83.0147 27.1325 83.3855 26.6941 83.4512 26.2616C83.4763 26.0993 83.4589 25.9313 83.4029 25.7672L80.5988 17.7277C80.3922 17.1367 80.4849 16.484 80.848 15.9742C81.211 15.4643 81.7962 15.1611 82.4219 15.1611H104.686C108.771 15.1611 112.093 18.4828 112.093 22.5672V54.1092C112.093 54.8315 111.689 55.4939 111.048 55.8241C110.42 56.1485 109.667 56.1041 109.082 55.7102C109.07 55.7024 109.057 55.6947 109.045 55.685C106.152 53.8041 102.958 52.5121 99.5534 51.842C91.4134 50.2468 83.1267 52.4156 76.8253 57.7958C65.5066 67.4575 64.1587 84.5253 73.8184 95.844C75.2282 97.4971 76.8292 98.9725 78.5769 100.234C80.8788 101.892 83.4241 103.173 86.1432 104.036C90.4691 105.411 95.1039 105.678 99.5534 104.805C102.78 104.175 105.83 102.972 108.616 101.23C108.757 101.141 108.896 101.052 109.035 100.964C109.051 100.954 109.064 100.944 109.08 100.933C109.661 100.541 110.412 100.492 111.04 100.815C111.685 101.145 112.093 101.809 112.093 102.534V143.872C112.093 147.656 109.018 150.73 105.239 150.73ZM7.48814 19.0235C5.53571 19.0235 3.94635 20.6129 3.94635 22.5672V143.324C3.94635 145.278 5.53571 146.868 7.48814 146.868H105.239C106.888 146.868 108.23 145.526 108.23 143.876V105.88C105.727 107.145 103.07 108.057 100.297 108.598C95.2159 109.596 89.9168 109.291 84.9749 107.721C81.8676 106.734 78.9554 105.27 76.3193 103.37C74.3206 101.929 72.4917 100.241 70.8811 98.3545C65.5298 92.0859 62.942 84.1101 63.5909 75.8968C64.2398 67.6835 68.05 60.2117 74.3186 54.8624C81.5219 48.7116 90.9905 46.23 100.299 48.055C103.08 48.6015 105.735 49.5111 108.232 50.7702V22.5672C108.232 20.6129 106.643 19.0235 104.688 19.0235H85.1429L87.0528 24.5003C87.3193 25.267 87.3927 26.0549 87.271 26.8467C86.9041 29.253 84.8706 30.9988 82.4354 30.9988H29.7392C27.304 30.9988 25.2724 29.253 24.9035 26.8486C24.7838 26.0569 24.8572 25.2689 25.1218 24.5061L27.0336 19.0254H7.48814V19.0235Z" fill="#06A37E"/>
    <path d="M73.8087 56.4473H37.207V60.3096H73.8087V56.4473Z" fill="#06A37E"/>
    <path d="M27.9376 56.4473H20.9854V60.3096H27.9376V56.4473Z" fill="#06A37E"/>
    <path d="M67.851 86.6294H37.207V90.4918H67.851V86.6294Z" fill="#06A37E"/>
    <path d="M27.9376 86.6294H20.9854V90.4918H27.9376V86.6294Z" fill="#06A37E"/>
    <path d="M27.9376 117.169H20.9854V121.031H27.9376V117.169Z" fill="#06A37E"/>
    <path d="M89.2582 117.169H37.207V121.031H89.2582V117.169Z" fill="#06A37E"/>
    <path d="M82.4368 30.9972H29.7387C28.159 30.9972 26.6681 30.2286 25.7527 28.9405C24.8374 27.6524 24.6018 25.9916 25.1232 24.4988L28.8214 13.8947C29.5243 11.8804 31.4304 10.5267 33.5644 10.5267H43.9812C44.9101 4.681 49.9852 0.19873 56.0877 0.19873C62.1903 0.19873 67.2654 4.681 68.1943 10.5267H78.6092C80.7431 10.5267 82.6492 11.8804 83.3522 13.8947L87.0504 24.4988C87.5718 25.9916 87.3343 27.6505 86.4208 28.9386C85.5074 30.2267 84.0184 30.9972 82.4368 30.9972ZM33.5644 14.3891C33.0719 14.3891 32.6316 14.7019 32.4694 15.1673L28.7712 25.7714C28.6186 26.206 28.7886 26.542 28.9025 26.7042C29.0164 26.8664 29.2772 27.1368 29.7387 27.1368H82.4387C82.9003 27.1368 83.161 26.8664 83.2749 26.7042C83.3889 26.5439 83.5588 26.2079 83.4063 25.7714L79.708 15.1673C79.5458 14.7019 79.1055 14.3891 78.6131 14.3891H66.4176C65.3516 14.3891 64.4865 13.5239 64.4865 12.4579C64.4865 7.8269 60.7207 4.06109 56.0897 4.06109C51.4606 4.06109 47.6929 7.8269 47.6929 12.4579C47.6929 13.5239 46.8277 14.3891 45.7617 14.3891H33.5644Z" fill="#06A37E"/>
    <path d="M94.3607 109.173C91.1858 109.173 88.0129 108.687 84.9752 107.721C81.8679 106.734 78.9557 105.271 76.3196 103.37C74.3208 101.93 72.492 100.242 70.8814 98.355C59.837 85.4161 61.3781 65.9054 74.317 54.8609C81.5203 48.7101 90.9908 46.2285 100.297 48.0535C104.2 48.8202 107.86 50.3033 111.174 52.4624C111.185 52.4701 111.195 52.4779 111.206 52.4836C111.214 52.4894 111.222 52.4952 111.232 52.4991C113.678 54.0981 115.891 56.0486 117.809 58.2965C122.637 63.9529 125.26 71.1582 125.194 78.5874C125.128 85.9414 122.446 93.0307 117.641 98.5501C117.518 98.693 117.39 98.8359 117.263 98.9788L117.039 99.226C117.035 99.2318 117.029 99.2356 117.025 99.2414L116.948 99.3245C116.861 99.4172 116.776 99.5099 116.689 99.6006C116.643 99.6489 116.592 99.701 116.542 99.7513C115.855 100.462 115.127 101.148 114.375 101.787C113.632 102.422 112.842 103.034 112.027 103.604C111.973 103.643 111.917 103.681 111.863 103.718L111.838 103.735C111.712 103.824 111.585 103.909 111.459 103.996C111.452 104.002 111.436 104.011 111.428 104.015L111.237 104.141C111.226 104.149 111.216 104.156 111.204 104.162C111.197 104.168 111.189 104.172 111.181 104.178C111.17 104.185 111.158 104.193 111.147 104.201C110.986 104.305 110.828 104.405 110.666 104.508C107.477 106.501 103.99 107.876 100.299 108.596C98.3389 108.982 96.3498 109.173 94.3607 109.173ZM94.297 51.3327C87.9376 51.3327 81.7713 53.5786 76.8275 57.8002C71.343 62.4814 68.0117 69.0165 67.4439 76.2024C66.8761 83.3884 69.1414 90.3657 73.8226 95.8483C75.2324 97.5014 76.8333 98.9788 78.581 100.238C80.883 101.897 83.4283 103.177 86.1474 104.04C90.4732 105.417 95.11 105.682 99.5575 104.809C102.785 104.179 105.834 102.976 108.621 101.234C108.762 101.146 108.901 101.057 109.04 100.968C109.055 100.958 109.071 100.949 109.084 100.937C109.092 100.933 109.098 100.927 109.105 100.923L109.3 100.796C109.416 100.717 109.526 100.643 109.634 100.568C109.642 100.562 109.652 100.557 109.66 100.551L109.76 100.483C109.773 100.474 109.783 100.466 109.799 100.456C110.517 99.9521 111.214 99.4133 111.871 98.8533C112.531 98.2894 113.172 97.6868 113.777 97.0611C113.785 97.0534 113.792 97.0457 113.8 97.036C113.837 96.9993 113.871 96.9626 113.906 96.9259C113.98 96.8487 114.049 96.7753 114.117 96.7L114.401 96.3891C114.507 96.2713 114.621 96.1419 114.731 96.0144C123.423 86.0302 123.485 70.8917 114.874 60.8051C113.192 58.8334 111.251 57.1243 109.107 55.7242C109.099 55.7184 109.092 55.7145 109.084 55.7087C109.072 55.701 109.059 55.6933 109.047 55.6836C106.154 53.8026 102.96 52.5107 99.5537 51.8406C97.8021 51.5007 96.0408 51.3327 94.297 51.3327Z" fill="#06A37E"/>
    <path d="M135.852 135.536C133.422 135.536 131.006 134.514 129.309 132.525L116.022 116.958C115.441 116.276 115.159 115.411 115.231 114.519C115.302 113.627 115.715 112.816 116.397 112.234L124.371 105.427C125.777 104.228 127.895 104.396 129.097 105.8L142.383 121.367C145.459 124.97 145.031 130.407 141.425 133.483C139.809 134.86 137.825 135.536 135.852 135.536ZM119.292 114.839L132.246 130.017C133.94 132.002 136.933 132.237 138.917 130.544C139.878 129.723 140.462 128.578 140.562 127.317C140.662 126.058 140.265 124.833 139.444 123.873L126.489 108.696L119.292 114.839Z" fill="#06A37E"/>
    <path d="M114.586 99.0473L111.68 101.592L120.322 111.462L123.228 108.918L114.586 99.0473Z" fill="#06A37E"/>
  </g>
</svg>