<svg xmlns="http://www.w3.org/2000/svg" width="165" height="169" viewBox="0 0 165 169" fill="none">
  <g opacity="0.1">
    <path d="M117.985 147.736L146.834 118.862C147.169 118.527 147.435 118.129 147.616 117.691C147.797 117.253 147.891 116.784 147.891 116.31C147.891 115.836 147.797 115.367 147.616 114.929C147.435 114.491 147.169 114.093 146.834 113.758L78.3179 45.1825C77.9832 44.8473 77.5857 44.5814 77.1482 44.3999C76.7107 44.2185 76.2418 44.1251 75.7683 44.1251C75.2947 44.1251 74.8258 44.2185 74.3884 44.3999C73.9509 44.5814 73.5534 44.8473 73.2187 45.1825L61.3439 57.0677L6.19563 1.87189C5.51736 1.20522 4.6035 0.833619 3.65287 0.837928C2.70224 0.842236 1.79177 1.22211 1.11957 1.8949C0.447364 2.56768 0.0678186 3.47894 0.0635136 4.43039C0.0592086 5.38184 0.430492 6.2965 1.09658 6.97535L56.2447 62.1714L44.3697 74.0566C44.0348 74.3917 43.7691 74.7895 43.5878 75.2273C43.4065 75.6652 43.3132 76.1345 43.3132 76.6085C43.3132 77.0824 43.4065 77.5517 43.5878 77.9896C43.7691 78.4274 44.0348 78.8253 44.3697 79.1603L112.886 147.736C113.221 148.071 113.618 148.337 114.056 148.518C114.493 148.7 114.962 148.793 115.436 148.793C115.909 148.793 116.378 148.7 116.815 148.518C117.253 148.337 117.65 148.071 117.985 147.736ZM107.913 132.552L114.379 126.08L109.28 120.977L102.814 127.448L97.0952 121.724L103.561 115.252L98.4617 110.149L91.9959 116.62L86.2768 110.896L92.7426 104.425L87.6433 99.3213L81.1776 105.793L75.4585 100.068L81.9243 93.597L76.825 88.4936L70.3592 94.9649L64.6401 89.2407L71.1059 82.7693L66.0066 77.6659L59.5409 84.1372L52.0187 76.6084L75.7684 52.8381L139.185 116.31L115.436 140.08L107.913 132.552Z" fill="#06A37E"/>
    <path d="M172.077 153.46C171.742 153.124 171.345 152.858 170.907 152.677C170.47 152.496 170.001 152.402 169.527 152.402C169.054 152.402 168.585 152.496 168.147 152.677C167.71 152.858 167.313 153.124 166.978 153.46L165.921 154.517L147.581 136.161L161.259 122.471C161.928 121.792 162.302 120.877 162.299 119.924C162.296 118.97 161.916 118.057 161.243 117.383C160.569 116.709 159.657 116.329 158.704 116.326C157.752 116.323 156.837 116.697 156.16 117.367L116.492 157.069C116.153 157.403 115.882 157.801 115.697 158.24C115.512 158.679 115.415 159.151 115.413 159.627C115.411 160.104 115.503 160.576 115.684 161.017C115.866 161.458 116.132 161.858 116.469 162.196C116.806 162.533 117.206 162.8 117.647 162.981C118.087 163.162 118.559 163.255 119.035 163.252C119.511 163.25 119.982 163.154 120.421 162.968C120.86 162.783 121.258 162.512 121.591 162.172L135.269 148.482L153.61 166.839L152.553 167.897C152.215 168.231 151.946 168.629 151.762 169.068C151.578 169.506 151.483 169.977 151.481 170.453C151.48 170.929 151.572 171.4 151.754 171.84C151.935 172.28 152.201 172.68 152.537 173.016C152.873 173.353 153.273 173.619 153.712 173.801C154.152 173.982 154.623 174.075 155.098 174.073C155.574 174.072 156.044 173.976 156.483 173.792C156.921 173.608 157.319 173.339 157.653 173L172.077 158.563C172.412 158.228 172.678 157.83 172.859 157.392C173.04 156.955 173.133 156.485 173.133 156.011C173.133 155.537 173.04 155.068 172.859 154.63C172.678 154.192 172.412 153.795 172.077 153.46ZM140.368 143.379L142.482 141.264L160.822 159.621L158.709 161.735L140.368 143.379Z" fill="#06A37E"/>
    <path d="M72.1624 15.251H64.9502V22.4695H72.1624V15.251Z" fill="#06A37E"/>
    <path d="M64.9495 22.4692H57.7373V29.6877H64.9495V22.4692Z" fill="#06A37E"/>
    <path d="M79.3743 22.4692H72.1621V29.6877H79.3743V22.4692Z" fill="#06A37E"/>
    <path d="M72.1624 29.688H64.9502V36.9065H72.1624V29.688Z" fill="#06A37E"/>
    <path d="M28.889 80.2178H21.6768V87.4362H28.889V80.2178Z" fill="#06A37E"/>
    <path d="M21.6761 87.436H14.4639V94.6545H21.6761V87.436Z" fill="#06A37E"/>
    <path d="M36.1009 87.436H28.8887V94.6545H36.1009V87.436Z" fill="#06A37E"/>
    <path d="M28.889 94.6543H21.6768V101.873H28.889V94.6543Z" fill="#06A37E"/>
  </g>
</svg>