<svg width="61" height="60" viewBox="0 0 61 60" fill="none" xmlns="http://www.w3.org/2000/svg">
<rect x="0.919922" width="60" height="60" rx="30" fill="#FEFEF2"/>
<path d="M44.6737 15.2644C43.0152 13.5891 41.0396 12.2608 38.8624 11.357C36.6851 10.4532 34.3497 9.9919 31.9923 10.0001C22.1149 10.0001 14.0646 18.0504 14.0646 27.9277C14.0646 31.0936 14.8968 34.169 16.4526 36.8825L13.9199 46.181L23.4174 43.6845C26.0405 45.1137 28.9893 45.8735 31.9923 45.8735C41.8697 45.8735 49.9199 37.8232 49.9199 27.9458C49.9199 23.1519 48.0566 18.6473 44.6737 15.2644ZM31.9923 42.8343C29.3149 42.8343 26.6918 42.1107 24.3943 40.7539L23.8516 40.4282L18.2074 41.9117L19.7089 36.4122L19.3471 35.8514C17.8596 33.476 17.0697 30.7304 17.0677 27.9277C17.0677 19.7147 23.7611 13.0212 31.9742 13.0212C35.9541 13.0212 39.6988 14.577 42.5028 17.3991C43.8912 18.7811 44.9915 20.425 45.7399 22.2354C46.4883 24.0459 46.8699 25.9868 46.8626 27.9458C46.8988 36.1589 40.2053 42.8343 31.9923 42.8343ZM40.1692 31.6906C39.7169 31.4735 37.5099 30.388 37.1119 30.2252C36.6958 30.0805 36.4064 30.0081 36.0988 30.4423C35.7913 30.8946 34.941 31.9076 34.6878 32.1971C34.4345 32.5046 34.1631 32.5408 33.7109 32.3056C33.2586 32.0885 31.8114 31.6001 30.1109 30.0805C28.7722 28.8865 27.8857 27.4212 27.6144 26.969C27.3611 26.5167 27.5782 26.2815 27.8134 26.0463C28.0124 25.8473 28.2656 25.5217 28.4827 25.2684C28.6998 25.0152 28.7903 24.8162 28.935 24.5267C29.0797 24.2192 29.0074 23.9659 28.8988 23.7489C28.7903 23.5318 27.8857 21.3247 27.5239 20.4202C27.1621 19.5519 26.7822 19.6604 26.5109 19.6423H25.6425C25.335 19.6423 24.8646 19.7509 24.4486 20.2031C24.0506 20.6554 22.8928 21.7408 22.8928 23.9478C22.8928 26.1549 24.5028 28.2896 24.7199 28.579C24.937 28.8865 27.8857 33.4092 32.3722 35.3448C33.4395 35.8152 34.2717 36.0865 34.9229 36.2855C35.9903 36.6293 36.9672 36.575 37.745 36.4664C38.6134 36.3398 40.4043 35.381 40.7661 34.3318C41.146 33.2825 41.1461 32.3961 41.0194 32.1971C40.8928 31.9981 40.6214 31.9076 40.1692 31.6906Z" fill="#021939"/>
</svg>
