<svg xmlns="http://www.w3.org/2000/svg" width="305" height="83" viewBox="0 0 305 83" fill="none">
  <path d="M284.347 136.028C288.755 121.801 295.099 108.083 299.105 93.7112C304.982 70.9612 305.987 47.0503 302.043 23.8126L301.175 23.9577C271.277 24.7765 241.463 20.1645 212.962 10.3119C205.149 7.62625 197.47 4.50513 189.991 1.02109L188.522 0.222656C187.793 1.93597 186.945 3.58605 185.984 5.15839C179.525 13.9057 171.622 21.2659 162.679 26.8611C97.9712 76.0733 64.2485 153.376 50.1584 230.315C46.2186 251.582 39.0734 277.785 16.5025 282.14C10.3535 283.037 4.09646 282.348 -1.76215 280.129C-7.62076 277.91 -12.9163 274.222 -17.2201 269.365C-24.7799 260.149 -30.1453 249.058 -32.8461 237.065C-41.5632 208.297 -42.7424 177.459 -36.2517 148.004C-28.6708 117.101 -10.1985 90.6855 15.167 74.476C20.576 71.0646 26.9198 67.3628 27.9883 61.3383C28.3377 58.6302 27.8524 55.8726 26.6081 53.4959C25.3638 51.1192 23.4306 49.2572 21.1102 48.2005C14.0985 45.2246 7.15367 48.4908 -5.46729 53.7169C-21.9613 60.6124 -107.57 95.5255 -53.0797 260.51C-31.8444 324.747 25.5843 306.818 45.484 315.674C84.4821 318.577 123.502 321.456 162.545 324.311C165.95 324.602 192.661 323.222 193.797 320.174C195.132 316.98 148.589 299.923 137.771 299.487C143.781 291.213 148.188 288.455 154.265 280.18C169.156 260.001 193.663 224.726 178.839 210.717C173.296 205.491 153.53 211.733 145.049 218.483C160.074 202.37 178.839 189.522 195.867 175.15C197.003 210.935 198.116 246.67 199.206 282.357C198.65 293.961 201.029 305.509 206.084 315.746C212.161 325.69 229.79 330.045 241.076 325.618C240.787 318.38 239.056 311.297 236.001 304.859C223.188 270.01 221.057 231.599 229.924 195.329L231.393 195.256C233.931 241.928 239.607 292.882 275.2 325.618C281.343 331.279 291.36 336.288 297.904 330.989C304.715 325.545 300.375 315.238 295.834 307.98C286.592 294.522 279.379 279.552 274.465 263.631C268.121 239.968 271.126 215.144 274.198 190.974C276.007 172.356 279.405 153.962 284.347 136.028ZM141.844 221.895C142.66 220.597 143.704 219.487 144.916 218.629C143.847 219.645 142.846 220.734 141.844 221.895Z" fill="#021939"/>
</svg>